<svg width="123" height="40" viewBox="0 0 123 40" fill="none" xmlns="http://www.w3.org/2000/svg">
<g clip-path="url(#clip0)">
<path d="M20.508 16.3563C18.9035 20.1259 27.0842 20.4461 30.7741 22.291C34.4639 24.1359 36.1482 27.9865 37.0276 27.9865C41.5994 21.8899 34.4639 13.5485 34.4639 13.5485C34.4639 13.5485 31.7383 12.7462 31.1727 10.099C30.6121 7.45184 33.0973 3.52156 32.6962 5.52719C32.2989 7.53156 35.1839 8.5755 35.5066 9.93832C35.8268 11.3011 35.4269 13.5485 35.4269 13.5485C35.4269 13.5485 43.2065 18.281 38.3955 29.4303C40.2404 36.891 36.1532 36.891 36.1532 36.891C36.1532 36.891 37.5148 39.5381 33.6655 39.5381C29.8149 39.5381 27.5714 39.5381 24.1207 39.5381C20.6688 39.5381 23.1552 36.6505 24.6787 36.6505C26.2023 36.6505 27.4436 36.6986 28.0472 36.6505C27.846 36.6645 23.4222 36.3076 24.3637 33.3327C18.7163 33.7958 11.3657 31.5169 11.3657 31.5169C11.3657 31.5169 7.79348 40.081 5.14631 40C2.49913 39.9216 0.361895 40.1582 0.559295 38.7346C0.994586 35.8875 4.90968 38.6157 5.26905 33.1986C5.50947 30.0718 7.27341 27.7435 7.27341 27.7435C7.27341 27.7435 2.38145 24.4535 3.98595 14.991C3.43171 15.0365 1.9006 15.3111 1.41849 14.3482C0.937644 13.3865 1.41849 12.2641 1.41849 12.2641C1.41849 12.2641 -0.625103 9.49417 0.256868 7.88966C1.13757 6.28389 4.7553 5.80938 6.43953 5.64867C7.12536 -0.889558 10.0142 -0.778205 14.5063 1.14771C21.8823 0.268266 23.7829 11.663 20.508 16.3563Z" fill="#DF8E33"/>
</g>
<path d="M43.4746 27V26.2617L44.4297 26.0977V19.377L43.4746 19.2129V18.4688H46.5391V19.2129L45.584 19.377V26.1152H48.6016L48.7363 24.7676H49.6211V27H43.4746ZM50.4824 27V26.2617L51.4375 26.0977V21.5684L50.4824 21.4043V20.6602H52.5918V26.0977L53.5469 26.2617V27H50.4824ZM51.3789 19.0957V17.8594H52.5918V19.0957H51.3789ZM57.209 27.123C56.623 27.123 56.1172 26.9863 55.6914 26.7129C55.2695 26.4355 54.9434 26.0547 54.7129 25.5703C54.4824 25.082 54.3672 24.5254 54.3672 23.9004V23.7715C54.3672 23.1465 54.4824 22.5918 54.7129 22.1074C54.9434 21.6191 55.2695 21.2363 55.6914 20.959C56.1172 20.6816 56.6191 20.543 57.1973 20.543C57.7832 20.543 58.2871 20.6816 58.709 20.959C59.1348 21.2363 59.4629 21.6172 59.6934 22.1016C59.9238 22.5859 60.0391 23.1426 60.0391 23.7715V23.9004C60.0391 24.5293 59.9238 25.0879 59.6934 25.5762C59.4629 26.0605 59.1367 26.4395 58.7148 26.7129C58.293 26.9863 57.791 27.123 57.209 27.123ZM57.209 26.2207C57.7559 26.2207 58.1719 26.002 58.457 25.5645C58.7422 25.127 58.8848 24.5723 58.8848 23.9004V23.7715C58.8848 23.3262 58.8203 22.9297 58.6914 22.582C58.5664 22.2305 58.3789 21.9551 58.1289 21.7559C57.8789 21.5527 57.5684 21.4512 57.1973 21.4512C56.8301 21.4512 56.5215 21.5527 56.2715 21.7559C56.0215 21.9551 55.834 22.2305 55.709 22.582C55.584 22.9297 55.5215 23.3262 55.5215 23.7715V23.9004C55.5215 24.5723 55.6621 25.127 55.9434 25.5645C56.2285 26.002 56.6504 26.2207 57.209 26.2207ZM60.9297 27V26.2617L61.8848 26.0977V21.5684L60.9297 21.4043V20.6602H62.916L62.998 21.6035C63.209 21.2676 63.4727 21.0078 63.7891 20.8242C64.1094 20.6367 64.4727 20.543 64.8789 20.543C65.5625 20.543 66.0918 20.7441 66.4668 21.1465C66.8418 21.5449 67.0293 22.1621 67.0293 22.998V26.0977L67.9844 26.2617V27H64.9199V26.2617L65.875 26.0977V23.0215C65.875 22.4629 65.7637 22.0664 65.541 21.832C65.3223 21.5977 64.9863 21.4805 64.5332 21.4805C64.2012 21.4805 63.9062 21.5605 63.6484 21.7207C63.3945 21.8809 63.1914 22.0996 63.0391 22.377V26.0977L63.9941 26.2617V27H60.9297ZM71.3711 27.123C70.9453 27.123 70.5469 27.0801 70.1758 26.9941C69.8047 26.9082 69.4102 26.7754 68.9922 26.5957L68.9805 25.0898H69.8535L70.0703 25.998C70.4844 26.1699 70.918 26.2559 71.3711 26.2559C71.8398 26.2559 72.1758 26.166 72.3789 25.9863C72.582 25.8066 72.6836 25.584 72.6836 25.3184C72.6836 25.0684 72.5801 24.8574 72.373 24.6855C72.1699 24.5098 71.7988 24.3613 71.2598 24.2402C70.4941 24.0645 69.9297 23.8301 69.5664 23.5371C69.207 23.2402 69.0273 22.8457 69.0273 22.3535C69.0273 22.0098 69.127 21.7031 69.3262 21.4336C69.5254 21.1602 69.8027 20.9434 70.1582 20.7832C70.5137 20.623 70.9277 20.543 71.4004 20.543C71.8809 20.543 72.291 20.5977 72.6309 20.707C72.9746 20.8164 73.2734 20.9629 73.5273 21.1465L73.5859 22.5938H72.7188L72.5312 21.75C72.3945 21.6484 72.2324 21.5703 72.0449 21.5156C71.8574 21.4609 71.6426 21.4336 71.4004 21.4336C71.041 21.4336 70.748 21.5176 70.5215 21.6855C70.2988 21.8535 70.1875 22.0645 70.1875 22.3184C70.1875 22.4668 70.2188 22.5957 70.2812 22.7051C70.3477 22.8145 70.4727 22.9141 70.6562 23.0039C70.8398 23.0898 71.1094 23.1758 71.4648 23.2617C72.3477 23.4688 72.9629 23.7324 73.3105 24.0527C73.6621 24.373 73.8379 24.7676 73.8379 25.2363C73.8379 25.7715 73.6387 26.2207 73.2402 26.584C72.8457 26.9434 72.2227 27.123 71.3711 27.123ZM77.8223 27V26.2617L78.7773 26.0977V19.377L77.8223 19.2129V18.4688H81.502C82.3926 18.4688 83.0879 18.6621 83.5879 19.0488C84.0918 19.4316 84.3438 20.0078 84.3438 20.7773C84.3438 21.1562 84.2227 21.4961 83.9805 21.7969C83.7422 22.0938 83.4258 22.3145 83.0312 22.459C83.543 22.5684 83.9473 22.8203 84.2441 23.2148C84.541 23.6094 84.6895 24.0684 84.6895 24.5918C84.6895 25.373 84.4355 25.9707 83.9277 26.3848C83.4199 26.7949 82.7324 27 81.8652 27H77.8223ZM79.9316 22.0957H81.8008C82.2148 22.0957 82.5488 21.9766 82.8027 21.7383C83.0605 21.4961 83.1895 21.168 83.1895 20.7539C83.1895 20.293 83.0449 19.9492 82.7559 19.7227C82.4668 19.4922 82.0488 19.377 81.502 19.377H79.9316V22.0957ZM79.9316 26.0977H81.8652C82.3926 26.0977 82.8008 25.9688 83.0898 25.7109C83.3828 25.4492 83.5293 25.0801 83.5293 24.6035C83.5293 24.1035 83.4062 23.7109 83.1602 23.4258C82.918 23.1406 82.5449 22.998 82.041 22.998H79.9316V26.0977ZM88.3164 27.123C87.6289 27.123 87.0918 26.9023 86.7051 26.4609C86.3184 26.0195 86.125 25.332 86.125 24.3984V21.5684L85.3984 21.4043V20.6602H87.2793V24.4102C87.2793 25.0859 87.3789 25.5508 87.5781 25.8047C87.7773 26.0586 88.0879 26.1855 88.5098 26.1855C88.9199 26.1855 89.2578 26.1035 89.5234 25.9395C89.793 25.7715 89.9961 25.5352 90.1328 25.2305V21.5684L89.2832 21.4043V20.6602H91.2871V26.0977L92.0137 26.2617V27H90.25L90.1738 26.0625C89.9746 26.4023 89.7168 26.6641 89.4004 26.8477C89.0879 27.0312 88.7266 27.123 88.3164 27.123ZM92.8164 27V26.2617L93.7715 26.0977V21.5684L92.8164 21.4043V20.6602H94.8027L94.9023 21.4688L94.9141 21.5801C95.0938 21.2559 95.3145 21.002 95.5762 20.8184C95.8418 20.6348 96.1445 20.543 96.4844 20.543C96.6055 20.543 96.7285 20.5547 96.8535 20.5781C96.9824 20.5977 97.0742 20.6172 97.1289 20.6367L96.9766 21.709L96.1738 21.6621C95.8691 21.6426 95.6133 21.7129 95.4062 21.873C95.1992 22.0293 95.0391 22.2402 94.9258 22.5059V26.0977L95.8809 26.2617V27H92.8164ZM100.498 29.5605C100.193 29.5605 99.8633 29.5176 99.5078 29.4316C99.1523 29.3496 98.8398 29.2363 98.5703 29.0918L98.8691 28.1953C99.084 28.3086 99.3379 28.4023 99.6309 28.4766C99.9238 28.5508 100.209 28.5879 100.486 28.5879C101.002 28.5879 101.379 28.4434 101.617 28.1543C101.859 27.8652 101.98 27.4531 101.98 26.918V26.3145C101.559 26.8535 100.979 27.123 100.24 27.123C99.7246 27.123 99.2793 26.9961 98.9043 26.7422C98.5293 26.4844 98.2402 26.127 98.0371 25.6699C97.8379 25.209 97.7383 24.6758 97.7383 24.0703V23.9473C97.7383 23.2676 97.8379 22.6719 98.0371 22.1602C98.2402 21.6484 98.5293 21.252 98.9043 20.9707C99.2793 20.6855 99.7285 20.543 100.252 20.543C101.037 20.543 101.639 20.8477 102.057 21.457L102.162 20.6602H103.92V21.3984L103.135 21.5684V26.918C103.135 27.7383 102.906 28.3828 102.449 28.8516C101.992 29.3242 101.342 29.5605 100.498 29.5605ZM100.527 26.1855C100.875 26.1855 101.166 26.1074 101.4 25.9512C101.635 25.791 101.828 25.5664 101.98 25.2773V22.3594C101.832 22.0898 101.639 21.877 101.4 21.7207C101.162 21.5605 100.875 21.4805 100.539 21.4805C99.9883 21.4805 99.5762 21.7109 99.3027 22.1719C99.0293 22.6328 98.8926 23.2246 98.8926 23.9473V24.0703C98.8926 24.707 99.0273 25.2188 99.2969 25.6055C99.5664 25.9922 99.9766 26.1855 100.527 26.1855ZM107.289 27.123C106.602 27.123 106.064 26.9023 105.678 26.4609C105.291 26.0195 105.098 25.332 105.098 24.3984V21.5684L104.371 21.4043V20.6602H106.252V24.4102C106.252 25.0859 106.352 25.5508 106.551 25.8047C106.75 26.0586 107.061 26.1855 107.482 26.1855C107.893 26.1855 108.23 26.1035 108.496 25.9395C108.766 25.7715 108.969 25.5352 109.105 25.2305V21.5684L108.256 21.4043V20.6602H110.26V26.0977L110.986 26.2617V27H109.223L109.146 26.0625C108.947 26.4023 108.689 26.6641 108.373 26.8477C108.061 27.0312 107.699 27.123 107.289 27.123ZM114.689 27.123C114.104 27.123 113.594 26.9902 113.16 26.7246C112.727 26.4551 112.391 26.082 112.152 25.6055C111.918 25.1289 111.801 24.5781 111.801 23.9531V23.6953C111.801 23.0938 111.924 22.5566 112.17 22.084C112.42 21.6074 112.75 21.2324 113.16 20.959C113.574 20.6816 114.025 20.543 114.514 20.543C115.365 20.543 116.01 20.8008 116.447 21.3164C116.889 21.832 117.109 22.5195 117.109 23.3789V24.0996H112.996L112.979 24.1289C112.99 24.7383 113.145 25.2402 113.441 25.6348C113.738 26.0254 114.154 26.2207 114.689 26.2207C115.08 26.2207 115.422 26.166 115.715 26.0566C116.012 25.9434 116.268 25.7891 116.482 25.5938L116.934 26.3438C116.707 26.5625 116.406 26.748 116.031 26.9004C115.66 27.0488 115.213 27.123 114.689 27.123ZM113.031 23.1973H115.955V23.0449C115.955 22.5918 115.834 22.2129 115.592 21.9082C115.35 21.6035 114.99 21.4512 114.514 21.4512C114.127 21.4512 113.797 21.6152 113.523 21.9434C113.25 22.2676 113.082 22.6758 113.02 23.168L113.031 23.1973ZM118 27V26.2617L118.955 26.0977V21.5684L118 21.4043V20.6602H119.986L120.086 21.4688L120.098 21.5801C120.277 21.2559 120.498 21.002 120.76 20.8184C121.025 20.6348 121.328 20.543 121.668 20.543C121.789 20.543 121.912 20.5547 122.037 20.5781C122.166 20.5977 122.258 20.6172 122.312 20.6367L122.16 21.709L121.357 21.6621C121.053 21.6426 120.797 21.7129 120.59 21.873C120.383 22.0293 120.223 22.2402 120.109 22.5059V26.0977L121.064 26.2617V27H118Z" fill="#DF8E33"/>
<defs>
<clipPath id="clip0">
<rect width="40" height="40" fill="white"/>
</clipPath>
</defs>
</svg>
